<mxfile host="app.diagrams.net" agent="Mozilla/5.0 (X11; Linux x86_64) AppleWebKit/537.36 (KHTML, like Gecko) Chrome/113.0.0.0 Safari/537.36" version="24.7.14">
  <diagram name="Page-1" id="18jR5IUm4-wpAappTB7k">
    <mxGraphModel dx="2764" dy="970" grid="1" gridSize="10" guides="1" tooltips="1" connect="1" arrows="1" fold="1" page="1" pageScale="1" pageWidth="850" pageHeight="1400" math="0" shadow="0">
      <root>
        <mxCell id="0" />
        <mxCell id="1" parent="0" />
        <mxCell id="fjNKbBPinnXTNL9WM4Bn-1" value="" style="outlineConnect=0;dashed=0;verticalLabelPosition=bottom;verticalAlign=top;align=center;html=1;shape=mxgraph.aws3.route_53;fillColor=#F58536;gradientColor=none;" parent="1" vertex="1">
          <mxGeometry x="40" y="480" width="40.5" height="45.5" as="geometry" />
        </mxCell>
        <mxCell id="fjNKbBPinnXTNL9WM4Bn-2" value="" style="outlineConnect=0;dashed=0;verticalLabelPosition=bottom;verticalAlign=top;align=center;html=1;shape=mxgraph.aws3.cloudfront;fillColor=#F58536;gradientColor=none;" parent="1" vertex="1">
          <mxGeometry x="150" y="480" width="50" height="45.5" as="geometry" />
        </mxCell>
        <mxCell id="fjNKbBPinnXTNL9WM4Bn-3" value="" style="outlineConnect=0;dashed=0;verticalLabelPosition=bottom;verticalAlign=top;align=center;html=1;shape=mxgraph.aws3.application_load_balancer;fillColor=#F58536;gradientColor=none;" parent="1" vertex="1">
          <mxGeometry x="400" y="484" width="50" height="40" as="geometry" />
        </mxCell>
        <mxCell id="fjNKbBPinnXTNL9WM4Bn-4" value="" style="outlineConnect=0;dashed=0;verticalLabelPosition=bottom;verticalAlign=top;align=center;html=1;shape=mxgraph.aws3.api_gateway;fillColor=#D9A741;gradientColor=none;" parent="1" vertex="1">
          <mxGeometry x="280" y="484" width="45" height="43" as="geometry" />
        </mxCell>
        <mxCell id="fjNKbBPinnXTNL9WM4Bn-5" value="" style="outlineConnect=0;dashed=0;verticalLabelPosition=bottom;verticalAlign=top;align=center;html=1;shape=mxgraph.aws3.bucket_with_objects;fillColor=#E05243;gradientColor=none;" parent="1" vertex="1">
          <mxGeometry x="158.25" y="330" width="33.5" height="32.5" as="geometry" />
        </mxCell>
        <mxCell id="fjNKbBPinnXTNL9WM4Bn-6" value="" style="outlineConnect=0;dashed=0;verticalLabelPosition=bottom;verticalAlign=top;align=center;html=1;shape=mxgraph.aws3.ecs;fillColor=#F58534;gradientColor=none;" parent="1" vertex="1">
          <mxGeometry x="560" y="560.75" width="41" height="30" as="geometry" />
        </mxCell>
        <mxCell id="fjNKbBPinnXTNL9WM4Bn-7" value="" style="outlineConnect=0;dashed=0;verticalLabelPosition=bottom;verticalAlign=top;align=center;html=1;shape=mxgraph.aws3.ecs;fillColor=#F58534;gradientColor=none;" parent="1" vertex="1">
          <mxGeometry x="559" y="426.25" width="42" height="37.5" as="geometry" />
        </mxCell>
        <mxCell id="fjNKbBPinnXTNL9WM4Bn-8" value="" style="outlineConnect=0;dashed=0;verticalLabelPosition=bottom;verticalAlign=top;align=center;html=1;shape=mxgraph.aws3.waf;fillColor=#759C3E;gradientColor=none;" parent="1" vertex="1">
          <mxGeometry x="140" y="450" width="36.5" height="30" as="geometry" />
        </mxCell>
        <mxCell id="fjNKbBPinnXTNL9WM4Bn-15" value="Private Subnet" style="text;html=1;align=center;verticalAlign=middle;whiteSpace=wrap;rounded=0;" parent="1" vertex="1">
          <mxGeometry x="410" y="315" width="60" height="30" as="geometry" />
        </mxCell>
        <mxCell id="fjNKbBPinnXTNL9WM4Bn-18" value="" style="outlineConnect=0;dashed=0;verticalLabelPosition=bottom;verticalAlign=top;align=center;html=1;shape=mxgraph.aws3.auto_scaling;fillColor=#F58534;gradientColor=none;" parent="1" vertex="1">
          <mxGeometry x="581" y="380" width="39.5" height="40.5" as="geometry" />
        </mxCell>
        <mxCell id="fjNKbBPinnXTNL9WM4Bn-19" value="AG-BE-SVC-B" style="text;html=1;align=center;verticalAlign=middle;whiteSpace=wrap;rounded=0;" parent="1" vertex="1">
          <mxGeometry x="550.5" y="594.5" width="60" height="30" as="geometry" />
        </mxCell>
        <mxCell id="fjNKbBPinnXTNL9WM4Bn-20" value="AG-BE-SVC-A" style="text;html=1;align=center;verticalAlign=middle;whiteSpace=wrap;rounded=0;" parent="1" vertex="1">
          <mxGeometry x="550" y="487.75" width="60" height="30" as="geometry" />
        </mxCell>
        <mxCell id="fjNKbBPinnXTNL9WM4Bn-27" value="Internal ALB" style="text;html=1;align=center;verticalAlign=middle;whiteSpace=wrap;rounded=0;strokeWidth=5;" parent="1" vertex="1">
          <mxGeometry x="395" y="530.75" width="60" height="30" as="geometry" />
        </mxCell>
        <mxCell id="fjNKbBPinnXTNL9WM4Bn-28" value="" style="outlineConnect=0;dashed=0;verticalLabelPosition=bottom;verticalAlign=top;align=center;html=1;shape=mxgraph.aws3.rds;fillColor=#2E73B8;gradientColor=none;" parent="1" vertex="1">
          <mxGeometry x="750" y="493.75" width="42" height="46" as="geometry" />
        </mxCell>
        <mxCell id="fjNKbBPinnXTNL9WM4Bn-35" value="www.abc.com" style="text;html=1;align=center;verticalAlign=middle;whiteSpace=wrap;rounded=0;" parent="1" vertex="1">
          <mxGeometry x="-120" y="472.5" width="130" height="157.5" as="geometry" />
        </mxCell>
        <mxCell id="fjNKbBPinnXTNL9WM4Bn-36" value="Route53" style="text;html=1;align=center;verticalAlign=middle;whiteSpace=wrap;rounded=0;" parent="1" vertex="1">
          <mxGeometry x="30.25" y="525.5" width="60" height="30" as="geometry" />
        </mxCell>
        <mxCell id="fjNKbBPinnXTNL9WM4Bn-37" value="Cloudfront" style="text;html=1;align=center;verticalAlign=middle;whiteSpace=wrap;rounded=0;" parent="1" vertex="1">
          <mxGeometry x="143.25" y="525.5" width="60" height="30" as="geometry" />
        </mxCell>
        <mxCell id="fjNKbBPinnXTNL9WM4Bn-40" value="&lt;b&gt;UI- APP&lt;/b&gt;" style="text;html=1;align=center;verticalAlign=middle;whiteSpace=wrap;rounded=0;" parent="1" vertex="1">
          <mxGeometry x="138.37" y="366" width="73.25" height="30" as="geometry" />
        </mxCell>
        <mxCell id="fjNKbBPinnXTNL9WM4Bn-47" value="Static Content" style="text;html=1;align=center;verticalAlign=middle;whiteSpace=wrap;rounded=0;" parent="1" vertex="1">
          <mxGeometry x="150" y="336" width="160" height="30" as="geometry" />
        </mxCell>
        <mxCell id="fjNKbBPinnXTNL9WM4Bn-57" value="API GW" style="text;html=1;align=center;verticalAlign=middle;whiteSpace=wrap;rounded=0;" parent="1" vertex="1">
          <mxGeometry x="272.5" y="527" width="60" height="30" as="geometry" />
        </mxCell>
        <mxCell id="fjNKbBPinnXTNL9WM4Bn-67" value="VPC LINK" style="text;html=1;align=center;verticalAlign=middle;whiteSpace=wrap;rounded=0;" parent="1" vertex="1">
          <mxGeometry x="325" y="463.75" width="60" height="30" as="geometry" />
        </mxCell>
        <mxCell id="fjNKbBPinnXTNL9WM4Bn-73" value="" style="rounded=1;arcSize=10;dashed=1;strokeColor=#F59D56;fillColor=none;gradientColor=none;dashPattern=8 4;strokeWidth=2;" parent="1" vertex="1">
          <mxGeometry x="550" y="405" width="60" height="80" as="geometry" />
        </mxCell>
        <mxCell id="fjNKbBPinnXTNL9WM4Bn-75" value="" style="rounded=1;arcSize=10;dashed=1;strokeColor=#F59D56;fillColor=none;gradientColor=none;dashPattern=8 4;strokeWidth=2;" parent="1" vertex="1">
          <mxGeometry x="550.5" y="555" width="60" height="75" as="geometry" />
        </mxCell>
        <mxCell id="fjNKbBPinnXTNL9WM4Bn-84" value="/fleet-ag/api/v1/product/GetProduct/1" style="text;html=1;align=center;verticalAlign=middle;whiteSpace=wrap;rounded=0;" parent="1" vertex="1">
          <mxGeometry x="165.25" y="557" width="229.75" height="30" as="geometry" />
        </mxCell>
        <mxCell id="fjNKbBPinnXTNL9WM4Bn-85" value="/fleet-ag/v1/health-check" style="text;html=1;align=center;verticalAlign=middle;whiteSpace=wrap;rounded=0;" parent="1" vertex="1">
          <mxGeometry x="204" y="577.5" width="141" height="30" as="geometry" />
        </mxCell>
        <mxCell id="fjNKbBPinnXTNL9WM4Bn-90" value="" style="endArrow=classic;html=1;rounded=0;" parent="1" edge="1">
          <mxGeometry width="50" height="50" relative="1" as="geometry">
            <mxPoint x="133.5" y="503.25" as="sourcePoint" />
            <mxPoint x="90.25" y="503.25" as="targetPoint" />
          </mxGeometry>
        </mxCell>
        <mxCell id="fjNKbBPinnXTNL9WM4Bn-91" value="WAF" style="text;html=1;align=center;verticalAlign=middle;whiteSpace=wrap;rounded=0;" parent="1" vertex="1">
          <mxGeometry x="103.25" y="463.75" width="60" height="30" as="geometry" />
        </mxCell>
        <mxCell id="fjNKbBPinnXTNL9WM4Bn-92" value="" style="outlineConnect=0;dashed=0;verticalLabelPosition=bottom;verticalAlign=top;align=center;html=1;shape=mxgraph.aws3.users;fillColor=#D2D3D3;gradientColor=none;" parent="1" vertex="1">
          <mxGeometry x="-78.5" y="607.5" width="37" height="46" as="geometry" />
        </mxCell>
        <mxCell id="fjNKbBPinnXTNL9WM4Bn-93" value="Developer" style="text;html=1;align=center;verticalAlign=middle;whiteSpace=wrap;rounded=0;" parent="1" vertex="1">
          <mxGeometry x="-88.5" y="651.75" width="60" height="30" as="geometry" />
        </mxCell>
        <mxCell id="fjNKbBPinnXTNL9WM4Bn-97" value="" style="outlineConnect=0;dashed=0;verticalLabelPosition=bottom;verticalAlign=top;align=center;html=1;shape=mxgraph.aws3.users;fillColor=#D2D3D3;gradientColor=none;" parent="1" vertex="1">
          <mxGeometry x="-78.5" y="473.5" width="40" height="52" as="geometry" />
        </mxCell>
        <mxCell id="fjNKbBPinnXTNL9WM4Bn-98" value="Users" style="text;html=1;align=center;verticalAlign=middle;whiteSpace=wrap;rounded=0;" parent="1" vertex="1">
          <mxGeometry x="-90" y="522" width="60" height="30" as="geometry" />
        </mxCell>
        <mxCell id="fjNKbBPinnXTNL9WM4Bn-107" value="" style="endArrow=classic;html=1;rounded=0;" parent="1" edge="1">
          <mxGeometry width="50" height="50" relative="1" as="geometry">
            <mxPoint x="41.5" y="502.25" as="sourcePoint" />
            <mxPoint x="-28.5" y="502.25" as="targetPoint" />
          </mxGeometry>
        </mxCell>
        <mxCell id="jWgn3CXW3hCYVttjlozP-5" value="" style="endArrow=classic;html=1;rounded=0;" edge="1" parent="1">
          <mxGeometry width="50" height="50" relative="1" as="geometry">
            <mxPoint x="270" y="506" as="sourcePoint" />
            <mxPoint x="213.25" y="505.5" as="targetPoint" />
          </mxGeometry>
        </mxCell>
        <mxCell id="jWgn3CXW3hCYVttjlozP-12" value="" style="endArrow=classic;html=1;rounded=0;exitX=0.012;exitY=0.471;exitDx=0;exitDy=0;exitPerimeter=0;" edge="1" parent="1" source="jWgn3CXW3hCYVttjlozP-25">
          <mxGeometry width="50" height="50" relative="1" as="geometry">
            <mxPoint x="380" y="505" as="sourcePoint" />
            <mxPoint x="338.25" y="505" as="targetPoint" />
          </mxGeometry>
        </mxCell>
        <mxCell id="jWgn3CXW3hCYVttjlozP-13" value="" style="outlineConnect=0;dashed=0;verticalLabelPosition=bottom;verticalAlign=top;align=center;html=1;shape=mxgraph.aws3.auto_scaling;fillColor=#F58534;gradientColor=none;" vertex="1" parent="1">
          <mxGeometry x="591" y="517.75" width="39.5" height="40.5" as="geometry" />
        </mxCell>
        <mxCell id="jWgn3CXW3hCYVttjlozP-16" value="ap-south-1a" style="text;html=1;align=center;verticalAlign=middle;whiteSpace=wrap;rounded=0;" vertex="1" parent="1">
          <mxGeometry x="610" y="415" width="60" height="30" as="geometry" />
        </mxCell>
        <mxCell id="jWgn3CXW3hCYVttjlozP-17" value="ap-south-1b" style="text;html=1;align=center;verticalAlign=middle;whiteSpace=wrap;rounded=0;" vertex="1" parent="1">
          <mxGeometry x="620.5" y="550" width="60" height="30" as="geometry" />
        </mxCell>
        <mxCell id="jWgn3CXW3hCYVttjlozP-18" value="" style="rounded=1;arcSize=10;dashed=0;fillColor=none;gradientColor=none;strokeWidth=2;" vertex="1" parent="1">
          <mxGeometry x="530.75" y="380" width="149.25" height="260" as="geometry" />
        </mxCell>
        <mxCell id="jWgn3CXW3hCYVttjlozP-19" value="" style="dashed=0;html=1;shape=mxgraph.aws3.instance;fillColor=#F58536;gradientColor=none;dashed=0;" vertex="1" parent="1">
          <mxGeometry x="528.5" y="364.25" width="30.5" height="33.5" as="geometry" />
        </mxCell>
        <mxCell id="jWgn3CXW3hCYVttjlozP-20" value="ECS FARGATE" style="text;html=1;align=center;verticalAlign=middle;whiteSpace=wrap;rounded=0;" vertex="1" parent="1">
          <mxGeometry x="560.5" y="640" width="60" height="30" as="geometry" />
        </mxCell>
        <mxCell id="jWgn3CXW3hCYVttjlozP-21" value="" style="endArrow=classic;html=1;rounded=0;exitX=0;exitY=0.5;exitDx=0;exitDy=0;" edge="1" parent="1" source="jWgn3CXW3hCYVttjlozP-18">
          <mxGeometry width="50" height="50" relative="1" as="geometry">
            <mxPoint x="496.75" y="509.5" as="sourcePoint" />
            <mxPoint x="455" y="509.5" as="targetPoint" />
          </mxGeometry>
        </mxCell>
        <mxCell id="jWgn3CXW3hCYVttjlozP-23" value="PG" style="text;html=1;align=center;verticalAlign=middle;whiteSpace=wrap;rounded=0;" vertex="1" parent="1">
          <mxGeometry x="717.5" y="536.25" width="112.5" height="30" as="geometry" />
        </mxCell>
        <mxCell id="jWgn3CXW3hCYVttjlozP-24" value="" style="endArrow=classic;html=1;rounded=0;entryX=1.025;entryY=0.533;entryDx=0;entryDy=0;entryPerimeter=0;" edge="1" parent="1" target="jWgn3CXW3hCYVttjlozP-18">
          <mxGeometry width="50" height="50" relative="1" as="geometry">
            <mxPoint x="738.25" y="516.75" as="sourcePoint" />
            <mxPoint x="696.5" y="516.75" as="targetPoint" />
          </mxGeometry>
        </mxCell>
        <mxCell id="jWgn3CXW3hCYVttjlozP-25" value="" style="rounded=1;arcSize=10;dashed=1;strokeColor=#ff0000;fillColor=none;gradientColor=none;dashPattern=8 4;strokeWidth=2;" vertex="1" parent="1">
          <mxGeometry x="394.88" y="360" width="421" height="310" as="geometry" />
        </mxCell>
        <mxCell id="jWgn3CXW3hCYVttjlozP-26" value="" style="rounded=1;arcSize=10;dashed=0;fillColor=none;gradientColor=none;strokeWidth=2;" vertex="1" parent="1">
          <mxGeometry x="387.32" y="345" width="436.12" height="330" as="geometry" />
        </mxCell>
        <mxCell id="jWgn3CXW3hCYVttjlozP-27" value="" style="dashed=0;html=1;shape=mxgraph.aws3.permissions;fillColor=#D9A741;gradientColor=none;dashed=0;" vertex="1" parent="1">
          <mxGeometry x="380" y="320" width="30" height="35" as="geometry" />
        </mxCell>
        <mxCell id="jWgn3CXW3hCYVttjlozP-28" value="" style="endArrow=classic;html=1;rounded=0;" edge="1" parent="1">
          <mxGeometry width="50" height="50" relative="1" as="geometry">
            <mxPoint x="770.75" y="555" as="sourcePoint" />
            <mxPoint x="770.5" y="589.25" as="targetPoint" />
          </mxGeometry>
        </mxCell>
        <mxCell id="jWgn3CXW3hCYVttjlozP-29" value="" style="endArrow=classic;html=1;rounded=0;" edge="1" parent="1">
          <mxGeometry width="50" height="50" relative="1" as="geometry">
            <mxPoint x="173" y="397.75" as="sourcePoint" />
            <mxPoint x="172.75" y="432" as="targetPoint" />
          </mxGeometry>
        </mxCell>
        <mxCell id="jWgn3CXW3hCYVttjlozP-30" value="" style="outlineConnect=0;dashed=0;verticalLabelPosition=bottom;verticalAlign=top;align=center;html=1;shape=mxgraph.aws3.snapshot;fillColor=#E05243;gradientColor=none;" vertex="1" parent="1">
          <mxGeometry x="756.5" y="590.75" width="29" height="46.25" as="geometry" />
        </mxCell>
        <mxCell id="jWgn3CXW3hCYVttjlozP-31" value="" style="outlineConnect=0;dashed=0;verticalLabelPosition=bottom;verticalAlign=top;align=center;html=1;shape=mxgraph.aws3.certificate_manager;fillColor=#759C3E;gradientColor=none;" vertex="1" parent="1">
          <mxGeometry x="191.75" y="463.75" width="34.87" height="30" as="geometry" />
        </mxCell>
        <mxCell id="jWgn3CXW3hCYVttjlozP-32" value="" style="outlineConnect=0;dashed=0;verticalLabelPosition=bottom;verticalAlign=top;align=center;html=1;shape=mxgraph.aws3.cloudwatch;fillColor=#759C3E;gradientColor=none;" vertex="1" parent="1">
          <mxGeometry x="758.5" y="306" width="40.5" height="45" as="geometry" />
        </mxCell>
        <mxCell id="jWgn3CXW3hCYVttjlozP-33" value="AWS Secrets Manager" style="sketch=0;outlineConnect=0;fontColor=#232F3E;gradientColor=none;strokeColor=#ffffff;fillColor=#232F3E;dashed=0;verticalLabelPosition=middle;verticalAlign=bottom;align=center;html=1;whiteSpace=wrap;fontSize=10;fontStyle=1;spacing=3;shape=mxgraph.aws4.productIcon;prIcon=mxgraph.aws4.secrets_manager;" vertex="1" parent="1">
          <mxGeometry x="870.5" y="487.75" width="50.5" height="80" as="geometry" />
        </mxCell>
        <mxCell id="jWgn3CXW3hCYVttjlozP-34" value="Cloudwatch" style="text;html=1;align=center;verticalAlign=middle;whiteSpace=wrap;rounded=0;" vertex="1" parent="1">
          <mxGeometry x="799" y="317.5" width="60" height="30" as="geometry" />
        </mxCell>
        <mxCell id="jWgn3CXW3hCYVttjlozP-35" value="Snapshot" style="text;html=1;align=center;verticalAlign=middle;whiteSpace=wrap;rounded=0;" vertex="1" parent="1">
          <mxGeometry x="743.75" y="637" width="60" height="30" as="geometry" />
        </mxCell>
        <mxCell id="jWgn3CXW3hCYVttjlozP-39" value="" style="endArrow=classic;html=1;rounded=0;" edge="1" parent="1">
          <mxGeometry width="50" height="50" relative="1" as="geometry">
            <mxPoint x="302.25" y="600.38" as="sourcePoint" />
            <mxPoint x="302" y="630" as="targetPoint" />
          </mxGeometry>
        </mxCell>
        <mxCell id="jWgn3CXW3hCYVttjlozP-40" value="CertManager" style="text;html=1;align=center;verticalAlign=middle;whiteSpace=wrap;rounded=0;" vertex="1" parent="1">
          <mxGeometry x="211.62" y="433.75" width="60" height="30" as="geometry" />
        </mxCell>
        <mxCell id="jWgn3CXW3hCYVttjlozP-46" value="" style="endArrow=classic;html=1;rounded=0;" edge="1" parent="1">
          <mxGeometry width="50" height="50" relative="1" as="geometry">
            <mxPoint x="870" y="517" as="sourcePoint" />
            <mxPoint x="800.63" y="516.75" as="targetPoint" />
          </mxGeometry>
        </mxCell>
        <mxCell id="fjNKbBPinnXTNL9WM4Bn-95" value="" style="rounded=1;arcSize=10;dashed=0;fillColor=none;gradientColor=none;strokeWidth=2;" parent="1" vertex="1">
          <mxGeometry y="297.75" width="930" height="384" as="geometry" />
        </mxCell>
        <mxCell id="jWgn3CXW3hCYVttjlozP-48" value="" style="endArrow=classic;html=1;rounded=0;entryX=0.664;entryY=1.014;entryDx=0;entryDy=0;entryPerimeter=0;" edge="1" parent="1" target="fjNKbBPinnXTNL9WM4Bn-35">
          <mxGeometry width="50" height="50" relative="1" as="geometry">
            <mxPoint x="290" y="630" as="sourcePoint" />
            <mxPoint x="211.62" y="629" as="targetPoint" />
          </mxGeometry>
        </mxCell>
        <mxCell id="jWgn3CXW3hCYVttjlozP-49" value="Private S3" style="text;html=1;align=center;verticalAlign=middle;whiteSpace=wrap;rounded=0;" vertex="1" parent="1">
          <mxGeometry x="90.25" y="306" width="160" height="30" as="geometry" />
        </mxCell>
        <mxCell id="jWgn3CXW3hCYVttjlozP-51" value="&lt;b&gt;BE APP&lt;/b&gt;" style="text;html=1;align=center;verticalAlign=middle;whiteSpace=wrap;rounded=0;" vertex="1" parent="1">
          <mxGeometry x="574.13" y="300" width="73.25" height="30" as="geometry" />
        </mxCell>
        <mxCell id="jWgn3CXW3hCYVttjlozP-52" value="" style="endArrow=classic;html=1;rounded=0;" edge="1" parent="1">
          <mxGeometry width="50" height="50" relative="1" as="geometry">
            <mxPoint x="609.25" y="325.75" as="sourcePoint" />
            <mxPoint x="609" y="360" as="targetPoint" />
          </mxGeometry>
        </mxCell>
      </root>
    </mxGraphModel>
  </diagram>
</mxfile>
